<svg xmlns="http://www.w3.org/2000/svg" width="1000" height="1000" viewBox="240 240 550 550" version="1.1">
	<path d="M 494.831 244.023 C 481.321 246.303, 479.152 247.315, 442.500 268.437 C 429.300 276.044, 398.700 293.631, 374.500 307.519 C 304.106 347.916, 293.254 354.298, 288.752 357.944 C 282.583 362.942, 274.293 372.565, 269.992 379.722 C 266.407 385.688, 261.777 398.629, 260.591 406 C 260.281 407.925, 259.563 464.274, 258.995 531.220 C 258.067 640.582, 258.121 653.628, 259.530 659.720 C 262.648 673.204, 272.401 687.802, 283.187 695.127 C 289.192 699.206, 297.914 703.368, 318.361 711.914 C 323.387 714.015, 338.075 720.332, 351 725.951 C 363.925 731.570, 387.550 741.812, 403.500 748.712 C 419.450 755.611, 442.850 765.749, 455.500 771.239 C 498.210 789.776, 500.482 790.561, 514.500 791.639 C 524.197 792.384, 535.680 790.273, 544.500 786.125 C 547.800 784.574, 557.700 778.661, 566.500 772.987 C 575.300 767.313, 601.175 750.971, 624 736.672 C 646.825 722.373, 671.575 706.856, 679 702.190 C 686.425 697.525, 701.487 688.091, 712.471 681.227 C 723.456 674.362, 734.634 666.898, 737.311 664.641 C 747.352 656.174, 756.468 640.983, 759.408 627.819 C 760.463 623.095, 761.095 605.852, 761.910 559.500 C 762.510 525.400, 763.222 491.200, 763.492 483.500 C 763.761 475.800, 764.277 447.450, 764.638 420.500 C 765.357 366.877, 765.326 366.497, 759.372 354.747 C 756.127 348.343, 746.660 339.152, 739.368 335.325 C 736.141 333.631, 707.625 321.207, 676 307.717 C 644.375 294.226, 600.950 275.656, 579.500 266.451 C 558.050 257.246, 537.575 248.687, 534 247.432 C 522.819 243.505, 506.378 242.075, 494.831 244.023 M 494.642 270.585 C 487.921 272.212, 479.445 276.549, 455.500 290.617 C 446.150 296.110, 430.625 305.148, 421 310.701 C 411.375 316.254, 392.250 327.302, 378.500 335.253 C 364.750 343.203, 346.616 353.648, 338.202 358.463 C 329.573 363.401, 322.171 368.335, 321.223 369.782 C 319.176 372.906, 319.198 379.127, 321.267 382.285 C 322.106 383.564, 324.751 385.601, 327.146 386.812 C 337.810 392.200, 513.707 467.236, 519.279 468.773 C 527.987 471.177, 545.347 471.055, 553.922 468.531 C 557.721 467.412, 565.687 463.389, 573.422 458.683 C 610.178 436.320, 655.841 408.697, 684 391.792 C 701.325 381.391, 716.546 371.852, 717.825 370.593 C 723.150 365.352, 721.285 356.173, 714.090 352.212 C 712.116 351.125, 687.550 340.463, 659.500 328.518 C 631.450 316.574, 590.059 298.926, 567.521 289.300 C 544.441 279.444, 523.693 271.196, 520.021 270.417 C 511.845 268.684, 502.233 268.747, 494.642 270.585 M 499.287 301.959 C 490.230 303.372, 483.812 306.220, 478.760 311.066 C 474.658 315.001, 474.001 316.176, 474.004 319.566 C 474.014 330.529, 487.642 338.284, 506.965 338.322 C 530.822 338.370, 546.186 326.929, 539.535 314.068 C 537.638 310.400, 530.148 305.470, 523.635 303.603 C 516.943 301.685, 505.846 300.936, 499.287 301.959 M 602.050 348.196 C 593.781 349.128, 583.959 353.876, 580.255 358.732 C 572.730 368.598, 580.207 378.942, 598.064 383.372 C 613.387 387.173, 632.052 383.675, 640.264 375.463 C 654.577 361.150, 631.733 344.850, 602.050 348.196 M 419.500 352.973 C 406.098 355.907, 398 362.916, 398 371.582 C 398 376.627, 404.267 382.853, 412.500 385.988 C 421.574 389.442, 437.466 389.964, 446.844 387.116 C 458.974 383.432, 466.369 375.591, 464.550 368.342 C 463.454 363.976, 456.218 357.569, 449.500 355.018 C 442.840 352.488, 426.730 351.391, 419.500 352.973 M 704.500 409.366 C 684.121 421.715, 668.682 431.101, 607.500 468.334 C 594.850 476.032, 579.563 485.294, 573.529 488.915 C 561.454 496.163, 556.146 500.833, 553.020 506.960 C 548.243 516.324, 548.154 517.781, 547.047 604.525 C 546.471 649.638, 546 699.391, 546 715.086 C 546 742.370, 546.089 743.718, 548.028 745.799 C 550.572 748.530, 553.850 749.388, 557.069 748.164 C 558.438 747.643, 565.028 743.681, 571.711 739.359 C 594.170 724.835, 638.687 696.830, 686 667.460 C 703.875 656.364, 720.482 645.534, 722.904 643.393 C 725.797 640.836, 728.537 636.926, 730.889 632 L 734.469 624.500 735.636 566.500 C 736.278 534.600, 737.125 484.200, 737.518 454.500 L 738.233 400.500 736.077 398.250 C 731.705 393.686, 728.534 394.802, 704.500 409.366 M 532.148 399.086 C 521.954 400.458, 511.845 405.633, 508.573 411.154 C 506.092 415.341, 506.549 421.310, 509.630 424.972 C 514.696 430.992, 528.420 435.954, 540.090 435.985 C 547.276 436.004, 560.091 432.722, 565.726 429.420 C 574.455 424.305, 576.479 415.308, 570.364 408.798 C 563.367 401.348, 546.739 397.122, 532.148 399.086 M 291.978 409.786 C 289.776 411.989, 287.765 415.230, 287.170 417.536 C 285.638 423.482, 283.683 651.293, 285.120 656.500 C 288.418 668.448, 293.671 673.385, 311.113 680.927 C 318.476 684.111, 352.850 698.974, 387.500 713.957 C 422.150 728.939, 460.850 745.748, 473.500 751.309 C 494.121 760.375, 497.120 761.425, 502.500 761.460 C 507.278 761.492, 509.188 761.010, 511.876 759.092 C 517.604 755.007, 518.704 750.818, 519.379 730.500 C 520.100 708.816, 521.500 585.406, 521.500 543.500 L 521.500 513.500 518.816 507.774 C 515.338 500.352, 510.858 494.842, 506.215 492.275 C 504.172 491.145, 458.323 471.271, 404.329 448.110 C 293.453 400.550, 299.240 402.525, 291.978 409.786 M 319.457 447.863 C 311.734 452.573, 308.519 459.642, 309.215 470.387 C 309.778 479.083, 312.399 485.308, 318.103 491.496 C 329.400 503.752, 343.635 505.973, 352.950 496.933 C 357.720 492.304, 359.342 487.065, 358.828 477.956 C 358.099 465.062, 348.307 451.337, 337.117 447.524 C 330.946 445.422, 323.218 445.570, 319.457 447.863 M 449 505.237 C 440.995 509.527, 437.366 517.612, 438.310 529.052 C 439.330 541.412, 447.181 553.472, 458.152 559.528 C 462.743 562.062, 464.571 562.482, 471.069 562.490 C 477.498 562.499, 479.197 562.123, 482.346 560 C 486.487 557.208, 490.473 549.947, 491.503 543.321 C 492.248 538.524, 490.164 529.202, 486.928 522.859 C 479.119 507.552, 460.674 498.982, 449 505.237 M 643.932 537.828 C 627.019 548.554, 617.181 576.991, 625.348 591.550 C 629.753 599.403, 639.020 601.522, 647.425 596.597 C 656.333 591.376, 665.606 577.598, 668.130 565.831 C 668.739 562.990, 669.035 557.167, 668.788 552.891 C 668.088 540.804, 663.060 535, 653.291 535 C 649.631 535, 647.263 535.715, 643.932 537.828 M 386.007 554.593 C 377.833 558.138, 373.665 565.143, 373.567 575.500 C 373.388 594.256, 389.235 612.333, 405.855 612.333 C 420.293 612.333, 428.100 599.944, 424.511 582.730 C 420.304 562.553, 400.695 548.224, 386.007 554.593 M 321.481 608.394 C 317.197 610.261, 312.282 616.243, 310.931 621.237 C 305.655 640.737, 322.305 665, 340.962 665 C 358.603 665, 366.320 645.378, 356.387 625.777 C 352.782 618.662, 347.624 613.468, 340.757 610.036 C 334.023 606.672, 326.839 606.059, 321.481 608.394 M 452.500 666.222 C 447.082 668.142, 443.781 671.237, 441.249 676.766 C 434.312 691.920, 443.958 714.992, 460.599 723.048 C 472.670 728.892, 485.248 725.267, 490.120 714.541 C 492.464 709.381, 492.578 698.509, 490.361 691.477 C 484.800 673.835, 466.138 661.386, 452.500 666.222" stroke="none" fill="#000000" fill-rule="evenodd" transform=" scale(0.9765625, 0.9765625)"/>
</svg>