<svg id="Bahan_copy_2" data-name="Bahan copy 2" xmlns="http://www.w3.org/2000/svg" viewBox="0 0 64 64"><defs><style>.cls-1{fill:#070200;}</style></defs><path class="cls-1" d="M54.99,33.03,46.9,20.7a2.81593,2.81593,0,0,1-.46-1.55V13.68a4.85844,4.85844,0,0,0-1.01-2.96L41.67,5.87a4.77145,4.77145,0,0,0-2.44-1.66L38.18,6.02,27.68,24.11a2.37449,2.37449,0,0,0-.14,2.18l2.02,4.75a4.55,4.55,0,0,1,.18,2.9l-2.65,9.61a2.50441,2.50441,0,0,0-.05.97005c.15852,1.153,2.08211,14.7176,2.18,15.43.40882.45865,17.3754-8.41768,18.11036-8.58982A4.89943,4.89943,0,0,0,49.51,49.2l5.75-11.34A4.85064,4.85064,0,0,0,54.99,33.03Z"/><path class="cls-1" d="M25.14,45.39c-1.64921.0153-15.191.19937-16.44.21a4.68569,4.68569,0,0,0,1.45,1.78l15.5,11.65a4.898,4.898,0,0,0,1.53.77C26.992,58.45888,25.37821,47.03291,25.14,45.39Z"/><path class="cls-1" d="M25.08,43.39c.02-.13,2.63995-9.67,2.63995-9.67-3.49425.63759-11.47988,2.11682-16.6,3.07l-2.35,4.5A4.79185,4.79185,0,0,0,8.22,43.6Z"/><path class="cls-1" d="M25.58,23.89c.1-.28,11.43-19.82,11.43-19.82a4.976,4.976,0,0,0-1.9.78S14.82,18.86,14.6,19.09C15.87219,19.63941,24.1123,23.25253,25.58,23.89Z"/><path class="cls-1" d="M27.65,31.69s-2.2-5.36-2.25-5.71L13.54,20.81c-.13.37-1.52,13.77-1.52,13.77S24.98,32.19,27.65,31.69Z"/></svg>