<?xml version="1.0" encoding="utf-8"?>
<!-- Generator: Adobe Illustrator 26.3.1, SVG Export Plug-In . SVG Version: 6.00 Build 0)  -->
<svg version="1.1" id="Layer_1" xmlns="http://www.w3.org/2000/svg" xmlns:xlink="http://www.w3.org/1999/xlink" x="0px" y="0px"
	 viewBox="0 0 1000 1000" style="enable-background:new 0 0 1000 1000;" xml:space="preserve">
<style type="text/css">
	.st0{fill:#231F20;}
</style>
<g id="XMLID_65_">
	<g id="XMLID_1_">
		<g id="XMLID_2_">
			<path id="XMLID_7_" class="st0" d="M569.39,493.74l91.16-225.93c19.37-48,20.3-101.47,2.61-150.11l-7.38-20.29
				c-2.33-6.4-11.23-6.79-14.11-0.62L513.03,372.82L569.39,493.74z"/>
			<path id="XMLID_15_" class="st0" d="M466.05,644.68l-37-91.69l-56.74,121.73c-2.35,5.04-8.97,6.24-12.95,2.35
				c-23.71-23.13-56.81-36.67-92.97-34.29c-61.2,4.02-110.22,53.9-113.24,115.16c-3.57,72.31,56.44,131.84,128.91,127.45
				c58.55-3.54,106.65-49.13,113.25-107.41c1.28-11.28,0.97-22.28-0.69-32.85C405.04,713.86,427.1,666.37,466.05,644.68z
				 M274.55,842.55c-43.28,0-78.49-35.21-78.49-78.49c0-43.28,35.21-78.49,78.49-78.49s78.49,35.21,78.49,78.49
				C353.04,807.34,317.83,842.55,274.55,842.55z"/>
		</g>
		<path id="XMLID_12_" class="st0" d="M846.85,757.93c-3.02-61.26-52.04-111.14-113.24-115.16c-36.16-2.37-69.25,11.17-92.97,34.29
			c-3.98,3.89-10.6,2.69-12.95-2.35L358.32,96.8c-2.88-6.17-11.78-5.78-14.11,0.62l-7.38,20.29
			c-17.69,48.64-16.76,102.11,2.61,150.11l147.42,365.35c69.26-1.87,104.46,69.8,118.5,111.96c-1.66,10.56-1.97,21.57-0.69,32.85
			c6.61,58.28,54.71,103.88,113.26,107.41C790.41,889.76,850.42,830.24,846.85,757.93z M500.4,552.99
			c-14.17,0-25.66-11.49-25.66-25.66s11.49-25.66,25.66-25.66c14.17,0,25.66,11.49,25.66,25.66S514.57,552.99,500.4,552.99z
			 M725.45,842.55c-43.28,0-78.49-35.21-78.49-78.49c0-43.28,35.21-78.49,78.49-78.49s78.49,35.21,78.49,78.49
			C803.94,807.34,768.73,842.55,725.45,842.55z"/>
	</g>
	<circle id="XMLID_64_" class="st0" cx="500.4" cy="527.33" r="15.39"/>
</g>
</svg>
